<?xml version="1.0" encoding="UTF-8" standalone="no"?>
<!-- Created with Inkscape (http://www.inkscape.org/) -->

<svg
   width="217mm"
   height="256mm"
   viewBox="0 0 217 256"
   version="1.1"
   id="svg1"
   xml:space="preserve"
   inkscape:version="1.4.2 (f4327f4, 2025-05-13)"
   sodipodi:docname="logo.svg"
   xmlns:inkscape="http://www.inkscape.org/namespaces/inkscape"
   xmlns:sodipodi="http://sodipodi.sourceforge.net/DTD/sodipodi-0.dtd"
   xmlns="http://www.w3.org/2000/svg"
   xmlns:svg="http://www.w3.org/2000/svg"><sodipodi:namedview
     id="namedview1"
     pagecolor="#ffffff"
     bordercolor="#000000"
     borderopacity="0.25"
     inkscape:showpageshadow="2"
     inkscape:pageopacity="0.0"
     inkscape:pagecheckerboard="0"
     inkscape:deskcolor="#d1d1d1"
     inkscape:document-units="mm"
     inkscape:zoom="2.8507295"
     inkscape:cx="727.18228"
     inkscape:cy="601.24961"
     inkscape:window-width="1920"
     inkscape:window-height="1005"
     inkscape:window-x="-8"
     inkscape:window-y="-8"
     inkscape:window-maximized="1"
     inkscape:current-layer="layer1" /><defs
     id="defs1" /><g
     inkscape:label="Layer 1"
     inkscape:groupmode="layer"
     id="layer1"><path
       style="fill:#000000;stroke-width:3.75568"
       d="M 101.67925,250.84087 C 97.033735,248.1892 84.736816,241.10973 74.352738,235.10871 63.968699,229.10768 44.740787,218.0236 31.624078,210.47741 18.507369,202.93122 6.8079405,196.12355 5.6253148,195.34925 2.6470613,193.39929 0.32285937,188.07872 0.32285937,183.2109 c 0,-5.364 3.70854523,-9.29409 14.68323963,-15.5604 7.779589,-4.44197 8.424289,-4.63575 11.924282,-3.58398 2.035014,0.61154 12.419654,6.17728 23.076957,12.3683 54.234332,31.50564 60.800392,35.01259 65.553952,35.01259 4.05801,0 7.88956,-1.98125 38.91439,-20.12222 26.61087,-15.56001 35.17209,-20.11512 37.76024,-20.09087 2.29021,0.0214 6.32182,1.84453 12.76867,5.77392 7.76156,4.73073 9.66468,6.38104 10.80077,9.36603 1.88385,4.94961 0.74963,10.06434 -3.14133,14.16576 -1.7432,1.83747 -17.70216,11.79702 -35.46434,22.13232 -17.76223,10.33531 -35.87222,20.91595 -40.24447,23.51256 -19.6484,11.66891 -22.36233,12.02712 -35.27597,4.65596 z m 10.37071,-54.75862 c -1.67424,-0.38713 -6.59303,-2.71848 -10.93057,-5.18076 C 96.781804,188.4392 74.899265,175.95641 52.491569,163.16195 30.083874,150.36748 10.482835,139.2451 8.9336925,138.44556 c -1.549105,-0.79955 -4.1202804,-2.93857 -5.7137023,-4.75338 -2.42538004,-2.76234 -2.89713083,-4.1622 -2.89713083,-8.59637 0,-6.84839 1.60679213,-8.84829 12.09922063,-15.05927 6.210878,-3.67651 9.261579,-4.89529 12.246179,-4.89243 4.131397,0.004 2.536399,-0.85507 66.577223,35.85757 25.844108,14.81563 22.902588,14.94106 51.671878,-2.20336 12.02365,-7.16523 27.00352,-16.08773 33.28861,-19.82776 14.63711,-8.71003 15.90845,-8.7661 28.69237,-1.26545 5.1235,3.00607 9.91461,6.54711 10.64697,7.86896 3.37073,6.08403 0.15024,15.16311 -6.79432,19.15421 -2.32368,1.33544 -21.45864,12.47687 -42.52217,24.75874 -49.07395,28.61436 -47.91248,28.04422 -54.17886,26.59523 z m -5.40228,-60.88214 C 104.18831,133.89817 83.395325,121.94647 60.441102,108.64078 37.486843,95.33509 15.733312,82.735087 12.09988,80.640767 2.6296725,75.182132 0.32285937,72.105919 0.32285937,64.935895 c 0,-9.471739 -5.15181517,-5.736818 62.02391263,-44.965569 C 92.242164,2.5122584 96.54253,0.28827673 100.40476,0.28827673 c 2.39484,0 5.78529,0.71995617 7.53438,1.59990427 10.60423,5.3349082 38.60756,21.784895 40.48243,23.780588 1.46115,1.555339 2.3871,4.022039 2.67663,7.130431 0.60951,6.544124 -2.141,10.216664 -12.27401,16.388525 -11.70206,7.127554 -13.48942,7.153701 -26.3933,0.386084 -6.47152,-3.394071 -11.85006,-5.563171 -13.79457,-5.563171 -3.07391,0 -21.59583,9.81372 -29.557231,15.660708 -5.956431,4.374487 -4.957121,5.380581 19.185323,19.315548 12.023658,6.940029 23.321908,12.916069 25.107238,13.280088 3.47972,0.709501 7.3703,-0.502705 13.14984,-4.097134 8.04594,-5.003961 54.51346,-32.13991 58.54259,-34.187511 5.81146,-2.953353 8.55449,-2.396059 19.83249,4.0293 10.483,5.972435 12.55355,8.673068 11.79682,15.386765 -0.73739,6.542182 -3.66172,9.555352 -16.38554,16.883407 -33.44214,19.260351 -50.86456,29.422281 -64.34631,37.531091 -17.44483,10.49247 -21.51193,11.51739 -29.31386,7.38721 z"
       id="path1"
       sodipodi:nodetypes="sssssssssssssssssssssssscsssssssssssssscsssssssssssssss" /></g></svg>
